<svg xmlns="http://www.w3.org/2000/svg" xmlns:xlink="http://www.w3.org/1999/xlink" width="500" zoomAndPan="magnify" viewBox="0 0 375 374.999991" height="500" preserveAspectRatio="xMidYMid meet" version="1.0"><defs><g/><clipPath id="d665a39304"><path d="M 83.417969 156 L 123.929688 156 L 123.929688 188 L 83.417969 188 Z M 83.417969 156 " clip-rule="nonzero"/></clipPath><clipPath id="03f2887bce"><path d="M 85 151.210938 L 116 151.210938 L 116 165 L 85 165 Z M 85 151.210938 " clip-rule="nonzero"/></clipPath><clipPath id="fc96c1ed33"><path d="M 183 164.433594 L 213 164.433594 L 213 191 L 183 191 Z M 183 164.433594 " clip-rule="nonzero"/></clipPath><clipPath id="3f6e86c367"><path d="M 174.320312 180 L 214.832031 180 L 214.832031 205.84375 L 174.320312 205.84375 Z M 174.320312 180 " clip-rule="nonzero"/></clipPath></defs><path fill="#1d6559" d="M 116.472656 166.667969 C 114.058594 167.855469 111.085938 168.9375 107.609375 169.9375 L 107.609375 171.125 C 107.609375 171.457031 107.605469 171.777344 107.597656 172.085938 L 108.179688 171.917969 C 110.96875 171.117188 113.808594 170.175781 116.460938 168.953125 C 116.464844 168.25 116.46875 167.484375 116.472656 166.667969 Z M 116.472656 166.667969 " fill-opacity="1" fill-rule="evenodd"/><g clip-path="url(#d665a39304)"><path fill="#39827a" d="M 116.472656 166.667969 C 122.136719 163.871094 124.714844 160.46875 123.476562 156.144531 C 123.460938 157.976562 120.984375 159.808594 116.273438 161.636719 C 113.929688 162.546875 111.03125 163.453125 107.609375 164.363281 C 107.609375 164.378906 107.609375 164.394531 107.609375 164.410156 C 105.714844 164.960938 103.953125 165.425781 102.339844 165.820312 C 100.710938 166.203125 98.769531 166.621094 96.5 167.097656 C 94.21875 167.558594 92.796875 167.851562 92.234375 167.988281 C 89.488281 168.574219 87.34375 169.75 85.777344 171.488281 C 84.207031 173.238281 83.425781 175.339844 83.425781 177.8125 C 83.425781 179.640625 83.902344 181.332031 84.847656 182.902344 C 85.796875 184.472656 87.152344 185.703125 88.902344 186.617188 C 90.652344 187.53125 92.683594 187.996094 95.011719 187.996094 C 97.539062 187.996094 99.832031 187.566406 101.875 186.71875 C 103.90625 185.871094 106.019531 184.597656 108.210938 182.902344 C 109.226562 184.5625 110.175781 185.816406 111.089844 186.683594 C 111.992188 187.554688 112.90625 187.996094 113.832031 187.996094 C 114.925781 187.996094 115.921875 187.609375 116.789062 186.855469 C 117.660156 186.097656 118.089844 185.25 118.089844 184.324219 C 118.089844 183.792969 117.816406 182.609375 117.253906 180.769531 C 116.6875 178.929688 116.40625 177.15625 116.40625 175.460938 C 116.429688 173.65625 116.441406 172.007812 116.453125 170.527344 C 116.457031 170.039062 116.457031 169.515625 116.460938 168.953125 C 113.808594 170.175781 110.96875 171.117188 108.179688 171.917969 L 107.597656 172.085938 C 107.519531 174.726562 107.121094 176.65625 106.390625 177.878906 C 105.679688 179.109375 104.574219 180.125 103.0625 180.902344 C 101.546875 181.683594 99.898438 182.078125 98.117188 182.078125 C 96.445312 182.078125 95.089844 181.605469 94.050781 180.644531 C 93.011719 179.683594 92.492188 178.523438 92.492188 177.144531 C 92.492188 175.824219 92.933594 174.796875 93.8125 174.0625 C 94.695312 173.316406 95.621094 172.820312 96.59375 172.570312 C 97.5625 172.3125 99.3125 171.917969 101.839844 171.375 C 104.359375 170.832031 106.289062 170.324219 107.609375 169.839844 L 107.609375 169.9375 C 111.085938 168.941406 114.058594 167.859375 116.472656 166.667969 Z M 116.472656 166.667969 " fill-opacity="1" fill-rule="evenodd"/></g><g clip-path="url(#03f2887bce)"><path fill="#8cc342" d="M 107.386719 162.289062 C 110.121094 161.554688 112.886719 160.738281 115.527344 159.714844 L 115.90625 159.566406 C 115.6875 158.644531 115.40625 157.8125 115.0625 157.070312 C 114.125 155.039062 112.523438 153.558594 110.253906 152.621094 C 107.984375 151.683594 104.867188 151.210938 100.894531 151.210938 C 97.335938 151.210938 94.378906 151.695312 91.996094 152.667969 C 89.613281 153.636719 87.863281 154.867188 86.734375 156.371094 C 85.605469 157.871094 85.050781 159.417969 85.050781 161 C 85.050781 162.015625 85.414062 162.851562 86.160156 163.496094 C 86.894531 164.148438 87.773438 164.476562 88.789062 164.476562 C 89.90625 164.476562 90.640625 164.273438 90.992188 163.867188 C 91.328125 163.460938 91.917969 162.613281 92.742188 161.339844 C 93.566406 160.050781 94.558594 159.101562 95.722656 158.460938 C 96.875 157.816406 98.601562 157.5 100.894531 157.5 C 103.570312 157.5 105.320312 158.050781 106.175781 159.171875 C 106.75 159.917969 107.148438 160.957031 107.386719 162.289062 Z M 107.386719 162.289062 " fill-opacity="1" fill-rule="evenodd"/></g><g clip-path="url(#fc96c1ed33)"><path fill="#39827a" d="M 188.601562 178.777344 C 188.601562 176.355469 189.082031 174.089844 190.042969 171.976562 C 191.003906 169.863281 192.355469 168.242188 194.089844 167.101562 C 195.828125 165.960938 197.734375 165.390625 199.8125 165.390625 C 202.179688 165.390625 204.375 166.125 206.402344 167.589844 C 208.410156 169.0625 209.976562 170.957031 211.101562 173.273438 C 211.40625 173.894531 211.699219 174.207031 211.96875 174.207031 C 212.175781 174.207031 212.296875 174.160156 212.339844 174.066406 C 212.382812 173.972656 212.402344 173.707031 212.402344 173.273438 L 211.84375 165.675781 C 211.808594 165.152344 211.621094 164.890625 211.28125 164.890625 C 210.957031 164.890625 210.710938 165.066406 210.539062 165.414062 C 210.402344 165.660156 209.867188 166.140625 208.929688 166.851562 C 207.292969 166.039062 205.691406 165.433594 204.121094 165.03125 C 202.554688 164.632812 201.019531 164.433594 199.519531 164.433594 C 196.707031 164.433594 193.980469 165.074219 191.339844 166.347656 C 188.699219 167.625 186.648438 169.417969 185.191406 171.726562 C 183.734375 174.035156 183.007812 176.625 183.007812 179.496094 C 183.007812 182.429688 183.753906 184.980469 185.253906 187.160156 C 186.101562 188.386719 187.121094 189.460938 188.304688 190.386719 C 189.550781 189.597656 190.945312 189 192.410156 188.632812 C 189.871094 186.082031 188.601562 182.800781 188.601562 178.777344 " fill-opacity="1" fill-rule="nonzero"/></g><g clip-path="url(#3f6e86c367)"><path fill="#8cc342" d="M 214.617188 181.578125 L 214.546875 180.414062 L 214.273438 181.566406 C 214.25 181.660156 214.230469 181.75 214.207031 181.839844 C 214.183594 181.929688 214.15625 182.023438 214.128906 182.113281 C 214.070312 182.292969 214.007812 182.472656 213.933594 182.648438 C 213.792969 183.003906 213.625 183.351562 213.433594 183.691406 C 213.050781 184.363281 212.574219 184.996094 212.011719 185.5625 C 211.449219 186.128906 210.800781 186.625 210.09375 187.039062 C 209.382812 187.449219 208.617188 187.777344 207.820312 188.023438 C 207.023438 188.269531 206.199219 188.433594 205.367188 188.535156 C 204.535156 188.636719 203.691406 188.671875 202.855469 188.660156 C 202.015625 188.648438 201.179688 188.589844 200.347656 188.492188 C 200.140625 188.46875 199.933594 188.441406 199.726562 188.410156 C 199.519531 188.382812 199.308594 188.355469 199.101562 188.324219 C 198.996094 188.3125 198.890625 188.296875 198.785156 188.285156 L 198.46875 188.253906 C 198.257812 188.226562 198.046875 188.214844 197.835938 188.199219 C 196.988281 188.136719 196.136719 188.125 195.285156 188.183594 C 195.070312 188.199219 194.859375 188.210938 194.644531 188.238281 L 194.328125 188.273438 L 194.007812 188.316406 C 193.796875 188.339844 193.585938 188.382812 193.375 188.417969 C 193.273438 188.433594 193.167969 188.460938 193.0625 188.480469 C 192.957031 188.5 192.851562 188.519531 192.75 188.546875 C 192.636719 188.574219 192.523438 188.601562 192.410156 188.632812 C 190.945312 189 189.550781 189.597656 188.304688 190.386719 C 188.238281 190.429688 188.167969 190.472656 188.097656 190.515625 C 187.75 190.746094 187.414062 190.992188 187.089844 191.246094 C 186.765625 191.503906 186.457031 191.777344 186.160156 192.054688 C 185.5625 192.617188 185.019531 193.222656 184.53125 193.863281 C 184.042969 194.5 183.601562 195.164062 183.222656 195.855469 C 183.03125 196.203125 182.851562 196.554688 182.6875 196.910156 C 182.527344 197.265625 182.375 197.625 182.25 197.992188 C 182.382812 197.628906 182.539062 197.269531 182.710938 196.917969 C 182.878906 196.5625 183.0625 196.21875 183.261719 195.875 C 183.65625 195.191406 184.105469 194.53125 184.601562 193.90625 C 185.097656 193.277344 185.648438 192.683594 186.246094 192.132812 C 186.546875 191.855469 186.855469 191.59375 187.179688 191.339844 C 187.503906 191.089844 187.839844 190.851562 188.1875 190.628906 C 188.265625 190.578125 188.347656 190.53125 188.425781 190.484375 C 189.691406 189.707031 191.09375 189.128906 192.558594 188.785156 C 192.636719 188.769531 192.714844 188.746094 192.792969 188.730469 C 192.894531 188.707031 193 188.6875 193.101562 188.667969 C 193.207031 188.648438 193.308594 188.625 193.414062 188.609375 C 193.621094 188.574219 193.828125 188.539062 194.035156 188.511719 L 194.347656 188.472656 L 194.664062 188.441406 C 194.871094 188.417969 195.082031 188.410156 195.292969 188.394531 C 195.394531 188.386719 195.5 188.386719 195.605469 188.378906 L 195.921875 188.367188 L 196.234375 188.367188 C 196.339844 188.367188 196.445312 188.363281 196.550781 188.367188 C 196.96875 188.375 197.390625 188.390625 197.808594 188.425781 C 198.015625 188.445312 198.222656 188.460938 198.429688 188.484375 L 198.742188 188.519531 C 198.847656 188.53125 198.949219 188.546875 199.054688 188.5625 C 199.257812 188.589844 199.464844 188.617188 199.675781 188.652344 C 199.882812 188.679688 200.09375 188.710938 200.300781 188.734375 C 201.140625 188.839844 201.988281 188.90625 202.839844 188.921875 C 203.691406 188.941406 204.546875 188.90625 205.398438 188.808594 C 206.246094 188.707031 207.09375 188.542969 207.914062 188.292969 C 208.734375 188.042969 209.527344 187.707031 210.265625 187.285156 C 211 186.859375 211.675781 186.347656 212.257812 185.761719 C 212.847656 185.179688 213.34375 184.519531 213.738281 183.824219 C 213.9375 183.476562 214.113281 183.113281 214.261719 182.746094 C 214.269531 182.722656 214.28125 182.695312 214.289062 182.671875 C 214.277344 183.296875 214.226562 183.925781 214.128906 184.546875 C 214.09375 184.789062 214.046875 185.035156 214 185.277344 L 213.957031 185.457031 L 213.914062 185.640625 C 213.886719 185.757812 213.859375 185.882812 213.824219 186 C 213.699219 186.480469 213.542969 186.957031 213.367188 187.425781 C 213.1875 187.894531 212.980469 188.355469 212.75 188.804688 C 212.511719 189.25 212.25 189.6875 211.960938 190.109375 C 211.886719 190.214844 211.808594 190.320312 211.734375 190.421875 C 211.695312 190.476562 211.660156 190.527344 211.621094 190.578125 L 211.5 190.730469 L 211.378906 190.878906 C 211.339844 190.929688 211.300781 190.980469 211.257812 191.027344 L 211 191.320312 C 210.957031 191.371094 210.910156 191.417969 210.867188 191.464844 L 210.730469 191.605469 L 210.597656 191.746094 C 210.550781 191.792969 210.5 191.835938 210.453125 191.882812 C 210.359375 191.972656 210.265625 192.0625 210.167969 192.152344 L 209.871094 192.410156 C 209.773438 192.496094 209.664062 192.574219 209.5625 192.65625 L 209.328125 192.84375 L 209.246094 192.902344 L 208.925781 193.136719 L 208.761719 193.253906 L 208.597656 193.363281 C 208.375 193.515625 208.144531 193.65625 207.917969 193.796875 C 207.804688 193.867188 207.6875 193.929688 207.570312 194 L 207.394531 194.097656 C 207.335938 194.132812 207.277344 194.164062 207.21875 194.195312 L 206.859375 194.382812 L 206.496094 194.5625 C 206.433594 194.589844 206.375 194.621094 206.3125 194.648438 L 206.128906 194.730469 C 206.003906 194.785156 205.882812 194.84375 205.753906 194.898438 C 205.503906 195 205.253906 195.105469 204.996094 195.195312 L 204.804688 195.269531 C 204.742188 195.292969 204.679688 195.316406 204.613281 195.335938 L 204.226562 195.46875 C 203.707031 195.632812 203.183594 195.789062 202.648438 195.914062 L 202.449219 195.960938 C 202.382812 195.980469 202.316406 195.992188 202.25 196.007812 L 201.847656 196.09375 L 201.445312 196.171875 L 201.039062 196.242188 C 200.902344 196.261719 200.769531 196.289062 200.632812 196.308594 L 200.226562 196.367188 C 199.953125 196.402344 199.679688 196.4375 199.40625 196.464844 C 198.859375 196.527344 198.3125 196.578125 197.761719 196.621094 C 196.664062 196.707031 195.5625 196.773438 194.460938 196.859375 C 193.910156 196.90625 193.355469 196.953125 192.804688 197.015625 C 192.253906 197.078125 191.707031 197.152344 191.15625 197.230469 C 188.964844 197.558594 186.792969 198.046875 184.695312 198.734375 C 183.648438 199.082031 182.617188 199.476562 181.621094 199.9375 C 181.371094 200.058594 181.121094 200.171875 180.878906 200.296875 C 180.757812 200.359375 180.632812 200.417969 180.515625 200.484375 L 180.152344 200.679688 C 180.03125 200.742188 179.914062 200.8125 179.796875 200.878906 L 179.445312 201.085938 L 179.097656 201.300781 L 178.925781 201.40625 L 178.753906 201.519531 L 178.417969 201.746094 C 178.308594 201.824219 178.199219 201.902344 178.089844 201.984375 L 177.921875 202.101562 C 177.867188 202.140625 177.816406 202.183594 177.761719 202.222656 L 177.445312 202.46875 C 177.335938 202.554688 177.238281 202.640625 177.132812 202.726562 C 177.03125 202.8125 176.925781 202.898438 176.828125 202.988281 L 176.53125 203.257812 L 176.460938 203.324219 L 176.386719 203.394531 L 176.246094 203.535156 C 176.152344 203.628906 176.054688 203.71875 175.964844 203.816406 C 175.871094 203.910156 175.78125 204.007812 175.695312 204.105469 C 175.515625 204.300781 175.34375 204.5 175.179688 204.703125 C 174.855469 205.113281 174.566406 205.550781 174.347656 206.011719 C 174.574219 205.554688 174.871094 205.125 175.207031 204.71875 C 175.371094 204.519531 175.546875 204.324219 175.726562 204.132812 C 175.820312 204.035156 175.910156 203.941406 176.003906 203.847656 C 176.097656 203.753906 176.195312 203.664062 176.289062 203.570312 L 176.433594 203.433594 L 176.503906 203.363281 L 176.578125 203.296875 L 176.878906 203.035156 C 176.976562 202.945312 177.082031 202.863281 177.1875 202.777344 C 177.289062 202.695312 177.390625 202.609375 177.5 202.527344 L 177.820312 202.285156 C 177.875 202.246094 177.925781 202.203125 177.980469 202.167969 L 178.148438 202.050781 C 178.257812 201.972656 178.367188 201.894531 178.476562 201.820312 L 178.988281 201.492188 L 179.160156 201.386719 L 179.507812 201.175781 L 179.863281 200.976562 C 179.980469 200.910156 180.097656 200.84375 180.21875 200.78125 L 180.578125 200.589844 C 180.699219 200.527344 180.824219 200.46875 180.945312 200.410156 C 181.1875 200.285156 181.4375 200.175781 181.683594 200.0625 C 181.808594 200.003906 181.933594 199.953125 182.0625 199.898438 C 182.1875 199.84375 182.3125 199.789062 182.4375 199.738281 C 182.691406 199.636719 182.945312 199.53125 183.203125 199.4375 L 183.585938 199.292969 L 183.972656 199.15625 L 184.363281 199.023438 L 184.753906 198.898438 C 186.847656 198.230469 189.011719 197.769531 191.191406 197.457031 C 191.734375 197.378906 192.28125 197.3125 192.828125 197.253906 C 193.375 197.195312 193.925781 197.148438 194.476562 197.109375 C 195.574219 197.027344 196.675781 196.96875 197.78125 196.890625 C 198.332031 196.847656 198.882812 196.800781 199.433594 196.742188 C 199.710938 196.714844 199.984375 196.675781 200.261719 196.644531 L 200.675781 196.585938 C 200.8125 196.566406 200.949219 196.542969 201.085938 196.519531 L 201.292969 196.488281 L 201.496094 196.449219 L 201.90625 196.375 L 202.316406 196.285156 C 202.382812 196.273438 202.453125 196.257812 202.519531 196.242188 L 202.722656 196.191406 C 203.265625 196.070312 203.800781 195.914062 204.332031 195.746094 L 204.726562 195.613281 C 204.792969 195.59375 204.855469 195.570312 204.921875 195.546875 L 205.117188 195.472656 C 205.378906 195.378906 205.632812 195.273438 205.890625 195.167969 C 206.019531 195.117188 206.144531 195.058594 206.269531 195.003906 L 206.460938 194.917969 C 206.523438 194.890625 206.585938 194.859375 206.648438 194.828125 L 207.019531 194.648438 L 207.386719 194.457031 C 207.445312 194.425781 207.507812 194.394531 207.566406 194.359375 L 207.746094 194.257812 C 207.867188 194.191406 207.988281 194.125 208.105469 194.050781 C 208.335938 193.90625 208.570312 193.765625 208.796875 193.609375 L 208.964844 193.496094 L 209.050781 193.4375 L 209.132812 193.378906 L 209.464844 193.136719 L 209.546875 193.078125 L 209.625 193.015625 L 209.785156 192.890625 C 209.890625 192.804688 210 192.722656 210.101562 192.632812 L 210.410156 192.367188 C 210.507812 192.277344 210.605469 192.183594 210.703125 192.089844 C 210.753906 192.046875 210.804688 192 210.851562 191.953125 L 210.992188 191.808594 L 211.128906 191.664062 C 211.175781 191.613281 211.222656 191.566406 211.265625 191.515625 L 211.53125 191.214844 C 211.578125 191.167969 211.617188 191.113281 211.660156 191.0625 L 211.78125 190.90625 L 211.90625 190.75 C 211.949219 190.699219 211.984375 190.644531 212.027344 190.59375 C 212.101562 190.484375 212.183594 190.378906 212.257812 190.273438 C 212.554688 189.839844 212.824219 189.390625 213.070312 188.933594 C 213.304688 188.472656 213.519531 188 213.703125 187.519531 C 214.066406 186.5625 214.328125 185.578125 214.480469 184.578125 C 214.632812 183.582031 214.675781 182.574219 214.617188 181.578125 " fill-opacity="1" fill-rule="nonzero"/></g><path fill="#8cc342" d="M 185.066406 196.390625 C 185.199219 196.308594 185.332031 196.230469 185.460938 196.148438 C 185.597656 196.070312 185.726562 195.992188 185.863281 195.914062 C 185.996094 195.839844 186.128906 195.761719 186.265625 195.6875 L 186.46875 195.574219 L 186.675781 195.464844 C 186.8125 195.390625 186.949219 195.320312 187.085938 195.25 C 187.222656 195.175781 187.359375 195.109375 187.5 195.039062 C 188.613281 194.492188 189.761719 194.015625 190.949219 193.636719 C 191.242188 193.539062 191.542969 193.457031 191.84375 193.371094 C 192.144531 193.292969 192.445312 193.210938 192.75 193.148438 C 192.902344 193.113281 193.058594 193.082031 193.210938 193.054688 C 193.363281 193.023438 193.515625 192.996094 193.667969 192.964844 L 194.132812 192.894531 C 194.207031 192.886719 194.285156 192.871094 194.363281 192.863281 L 194.59375 192.835938 C 195.835938 192.683594 197.09375 192.691406 198.339844 192.824219 C 197.125 192.5625 195.84375 192.480469 194.574219 192.585938 C 194.257812 192.605469 193.941406 192.648438 193.625 192.6875 C 193.3125 192.738281 192.996094 192.785156 192.683594 192.851562 C 192.683594 192.851562 192.679688 192.855469 192.679688 192.855469 C 192.367188 192.914062 192.0625 192.992188 191.753906 193.066406 C 191.449219 193.152344 191.140625 193.238281 190.839844 193.335938 C 189.628906 193.71875 188.46875 194.230469 187.367188 194.824219 C 187.230469 194.902344 187.09375 194.976562 186.957031 195.054688 L 186.753906 195.167969 C 186.6875 195.207031 186.621094 195.25 186.554688 195.289062 L 186.355469 195.410156 L 186.160156 195.535156 C 186.027344 195.617188 185.898438 195.703125 185.765625 195.789062 C 185.511719 195.960938 185.257812 196.136719 185.011719 196.320312 C 184.761719 196.507812 184.519531 196.695312 184.292969 196.898438 C 184.417969 196.808594 184.546875 196.722656 184.675781 196.640625 C 184.742188 196.597656 184.804688 196.554688 184.871094 196.515625 C 184.9375 196.472656 185 196.429688 185.066406 196.390625 " fill-opacity="1" fill-rule="nonzero"/><g fill="#39827a" fill-opacity="1"><g transform="translate(123.800944, 188.14435)"><g><path d="M 6.296875 -1.15625 L 6.296875 -20.765625 L 2.5625 -20.765625 C 2.238281 -20.765625 1.960938 -20.882812 1.734375 -21.125 C 1.515625 -21.375 1.40625 -21.640625 1.40625 -21.921875 L 1.40625 -23.265625 C 1.40625 -24.035156 1.789062 -24.421875 2.5625 -24.421875 L 6.296875 -24.421875 L 6.296875 -32.96875 C 6.296875 -36.507812 7.195312 -39.125 9 -40.8125 C 10.8125 -42.507812 13.019531 -43.359375 15.625 -43.359375 C 17.300781 -43.359375 18.707031 -43.070312 19.84375 -42.5 C 20.988281 -41.925781 21.820312 -41.375 22.34375 -40.84375 C 22.832031 -40.4375 22.914062 -39.972656 22.59375 -39.453125 L 21.609375 -37.859375 C 21.242188 -37.242188 20.71875 -37.222656 20.03125 -37.796875 C 19.625 -38.117188 19.007812 -38.492188 18.1875 -38.921875 C 17.375 -39.347656 16.503906 -39.5625 15.578125 -39.5625 C 14.191406 -39.5625 13 -39.050781 12 -38.03125 C 11 -37.019531 10.5 -35.332031 10.5 -32.96875 L 10.5 -24.421875 L 17.59375 -24.421875 C 18.363281 -24.421875 18.75 -24.035156 18.75 -23.265625 L 18.75 -21.921875 C 18.75 -21.640625 18.632812 -21.375 18.40625 -21.125 C 18.1875 -20.882812 17.914062 -20.765625 17.59375 -20.765625 L 10.5 -20.765625 L 10.5 -1.15625 C 10.5 -0.875 10.382812 -0.609375 10.15625 -0.359375 C 9.9375 -0.117188 9.664062 0 9.34375 0 L 7.453125 0 C 7.160156 0 6.894531 -0.117188 6.65625 -0.359375 C 6.414062 -0.609375 6.296875 -0.875 6.296875 -1.15625 Z M 6.296875 -1.15625 "/></g></g></g><g fill="#39827a" fill-opacity="1"><g transform="translate(143.33898, 188.14435)"><g><path d="M 6.34375 -35.71875 C 5.570312 -35.71875 4.898438 -36.003906 4.328125 -36.578125 C 3.765625 -37.148438 3.484375 -37.820312 3.484375 -38.59375 C 3.484375 -39.40625 3.765625 -40.09375 4.328125 -40.65625 C 4.898438 -41.226562 5.570312 -41.515625 6.34375 -41.515625 C 7.164062 -41.515625 7.859375 -41.226562 8.421875 -40.65625 C 8.992188 -40.09375 9.28125 -39.40625 9.28125 -38.59375 C 9.28125 -37.820312 8.992188 -37.148438 8.421875 -36.578125 C 7.859375 -36.003906 7.164062 -35.71875 6.34375 -35.71875 Z M 4.328125 -1.15625 L 4.328125 -23.265625 C 4.328125 -23.585938 4.445312 -23.859375 4.6875 -24.078125 C 4.9375 -24.304688 5.207031 -24.421875 5.5 -24.421875 L 7.390625 -24.421875 C 7.710938 -24.421875 7.984375 -24.304688 8.203125 -24.078125 C 8.429688 -23.859375 8.546875 -23.585938 8.546875 -23.265625 L 8.546875 -1.15625 C 8.546875 -0.875 8.429688 -0.609375 8.203125 -0.359375 C 7.984375 -0.117188 7.710938 0 7.390625 0 L 5.5 0 C 5.207031 0 4.9375 -0.117188 4.6875 -0.359375 C 4.445312 -0.609375 4.328125 -0.875 4.328125 -1.15625 Z M 4.328125 -1.15625 "/></g></g></g><g fill="#39827a" fill-opacity="1"><g transform="translate(156.221864, 188.14435)"><g><path d="M 2.5625 -7.390625 C 2.5625 -9.710938 3.40625 -11.644531 5.09375 -13.1875 C 6.789062 -14.738281 9.203125 -15.515625 12.328125 -15.515625 C 13.628906 -15.515625 14.820312 -15.378906 15.90625 -15.109375 C 16.988281 -14.847656 17.53125 -14.71875 17.53125 -14.71875 C 17.570312 -17 17.359375 -18.664062 16.890625 -19.71875 C 16.421875 -20.78125 15.3125 -21.3125 13.5625 -21.3125 C 11.882812 -21.3125 10.382812 -21.132812 9.0625 -20.78125 C 7.738281 -20.4375 6.796875 -20.164062 6.234375 -19.96875 C 5.660156 -19.71875 5.269531 -19.921875 5.0625 -20.578125 L 4.578125 -22.109375 C 4.453125 -22.472656 4.460938 -22.753906 4.609375 -22.953125 C 4.753906 -23.160156 4.96875 -23.328125 5.25 -23.453125 C 5.375 -23.523438 5.820312 -23.679688 6.59375 -23.921875 C 7.363281 -24.171875 8.367188 -24.414062 9.609375 -24.65625 C 10.859375 -24.90625 12.234375 -25.03125 13.734375 -25.03125 C 16.867188 -25.03125 18.945312 -24.207031 19.96875 -22.5625 C 20.988281 -20.914062 21.5 -18.300781 21.5 -14.71875 L 21.5 -1.15625 C 21.5 -0.875 21.382812 -0.609375 21.15625 -0.359375 C 20.9375 -0.117188 20.660156 0 20.328125 0 L 19.171875 0 C 18.847656 0 18.613281 -0.078125 18.46875 -0.234375 C 18.320312 -0.398438 18.210938 -0.628906 18.140625 -0.921875 L 17.640625 -2.5625 C 16.992188 -1.914062 16.046875 -1.222656 14.796875 -0.484375 C 13.554688 0.242188 11.984375 0.609375 10.078125 0.609375 C 7.960938 0.609375 6.179688 -0.109375 4.734375 -1.546875 C 3.285156 -2.992188 2.5625 -4.941406 2.5625 -7.390625 Z M 6.46875 -7.390625 C 6.46875 -6.171875 6.851562 -5.140625 7.625 -4.296875 C 8.40625 -3.460938 9.445312 -3.046875 10.75 -3.046875 C 12.289062 -3.046875 13.660156 -3.421875 14.859375 -4.171875 C 16.066406 -4.929688 16.9375 -5.695312 17.46875 -6.46875 L 17.46875 -11.296875 C 17.101562 -11.503906 16.488281 -11.71875 15.625 -11.9375 C 14.769531 -12.164062 13.671875 -12.28125 12.328125 -12.28125 C 10.617188 -12.28125 9.210938 -11.859375 8.109375 -11.015625 C 7.015625 -10.179688 6.46875 -8.972656 6.46875 -7.390625 Z M 6.46875 -7.390625 "/></g></g></g><g fill="#39827a" fill-opacity="1"><g transform="translate(217.634345, 189.093451)"><g><path d="M 2.5625 -7.390625 C 2.5625 -9.710938 3.40625 -11.644531 5.09375 -13.1875 C 6.789062 -14.738281 9.203125 -15.515625 12.328125 -15.515625 C 13.628906 -15.515625 14.820312 -15.378906 15.90625 -15.109375 C 16.988281 -14.847656 17.53125 -14.71875 17.53125 -14.71875 C 17.570312 -17 17.359375 -18.664062 16.890625 -19.71875 C 16.421875 -20.78125 15.3125 -21.3125 13.5625 -21.3125 C 11.882812 -21.3125 10.382812 -21.132812 9.0625 -20.78125 C 7.738281 -20.4375 6.796875 -20.164062 6.234375 -19.96875 C 5.660156 -19.71875 5.269531 -19.921875 5.0625 -20.578125 L 4.578125 -22.109375 C 4.453125 -22.472656 4.460938 -22.753906 4.609375 -22.953125 C 4.753906 -23.160156 4.96875 -23.328125 5.25 -23.453125 C 5.375 -23.523438 5.820312 -23.679688 6.59375 -23.921875 C 7.363281 -24.171875 8.367188 -24.414062 9.609375 -24.65625 C 10.859375 -24.90625 12.234375 -25.03125 13.734375 -25.03125 C 16.867188 -25.03125 18.945312 -24.207031 19.96875 -22.5625 C 20.988281 -20.914062 21.5 -18.300781 21.5 -14.71875 L 21.5 -1.15625 C 21.5 -0.875 21.382812 -0.609375 21.15625 -0.359375 C 20.9375 -0.117188 20.660156 0 20.328125 0 L 19.171875 0 C 18.847656 0 18.613281 -0.078125 18.46875 -0.234375 C 18.320312 -0.398438 18.210938 -0.628906 18.140625 -0.921875 L 17.640625 -2.5625 C 16.992188 -1.914062 16.046875 -1.222656 14.796875 -0.484375 C 13.554688 0.242188 11.984375 0.609375 10.078125 0.609375 C 7.960938 0.609375 6.179688 -0.109375 4.734375 -1.546875 C 3.285156 -2.992188 2.5625 -4.941406 2.5625 -7.390625 Z M 6.46875 -7.390625 C 6.46875 -6.171875 6.851562 -5.140625 7.625 -4.296875 C 8.40625 -3.460938 9.445312 -3.046875 10.75 -3.046875 C 12.289062 -3.046875 13.660156 -3.421875 14.859375 -4.171875 C 16.066406 -4.929688 16.9375 -5.695312 17.46875 -6.46875 L 17.46875 -11.296875 C 17.101562 -11.503906 16.488281 -11.71875 15.625 -11.9375 C 14.769531 -12.164062 13.671875 -12.28125 12.328125 -12.28125 C 10.617188 -12.28125 9.210938 -11.859375 8.109375 -11.015625 C 7.015625 -10.179688 6.46875 -8.972656 6.46875 -7.390625 Z M 6.46875 -7.390625 "/></g></g></g><g fill="#39827a" fill-opacity="1"><g transform="translate(243.278033, 189.093451)"><g><path d="M 4.328125 -1.15625 L 4.328125 -23.265625 C 4.328125 -23.585938 4.445312 -23.859375 4.6875 -24.078125 C 4.9375 -24.304688 5.207031 -24.421875 5.5 -24.421875 L 6.65625 -24.421875 C 7.226562 -24.421875 7.570312 -24.132812 7.6875 -23.5625 L 8.1875 -21.796875 C 8.1875 -21.796875 8.4375 -22.070312 8.9375 -22.625 C 9.445312 -23.175781 10.25 -23.710938 11.34375 -24.234375 C 12.445312 -24.765625 13.835938 -25.03125 15.515625 -25.03125 C 16.117188 -25.03125 16.796875 -24.976562 17.546875 -24.875 C 18.304688 -24.78125 18.921875 -24.585938 19.390625 -24.296875 C 19.859375 -24.015625 19.988281 -23.585938 19.78125 -23.015625 L 19.046875 -20.9375 C 18.890625 -20.53125 18.6875 -20.304688 18.4375 -20.265625 C 18.195312 -20.234375 17.914062 -20.273438 17.59375 -20.390625 C 17.300781 -20.515625 16.941406 -20.628906 16.515625 -20.734375 C 16.085938 -20.835938 15.648438 -20.890625 15.203125 -20.890625 C 13.660156 -20.890625 12.398438 -20.601562 11.421875 -20.03125 C 10.441406 -19.457031 9.71875 -18.882812 9.25 -18.3125 C 8.78125 -17.75 8.546875 -17.46875 8.546875 -17.46875 L 8.546875 -1.15625 C 8.546875 -0.875 8.429688 -0.609375 8.203125 -0.359375 C 7.984375 -0.117188 7.710938 0 7.390625 0 L 5.5 0 C 5.207031 0 4.9375 -0.117188 4.6875 -0.359375 C 4.445312 -0.609375 4.328125 -0.875 4.328125 -1.15625 Z M 4.328125 -1.15625 "/></g></g></g><g fill="#39827a" fill-opacity="1"><g transform="translate(263.670851, 189.093451)"><g><path d="M 2.5625 -12.21875 C 2.5625 -14.53125 3.050781 -16.65625 4.03125 -18.59375 C 5.007812 -20.53125 6.394531 -22.085938 8.1875 -23.265625 C 9.976562 -24.441406 12.09375 -25.03125 14.53125 -25.03125 C 16.6875 -25.03125 18.585938 -24.539062 20.234375 -23.5625 C 21.890625 -22.59375 23.191406 -21.269531 24.140625 -19.59375 C 25.097656 -17.925781 25.578125 -16.015625 25.578125 -13.859375 C 25.578125 -13.328125 25.539062 -12.78125 25.46875 -12.21875 C 25.382812 -11.519531 25.015625 -11.171875 24.359375 -11.171875 L 6.78125 -11.171875 C 6.863281 -9.828125 7.28125 -8.546875 8.03125 -7.328125 C 8.78125 -6.109375 9.765625 -5.117188 10.984375 -4.359375 C 12.210938 -3.609375 13.535156 -3.234375 14.953125 -3.234375 C 16.265625 -3.234375 17.425781 -3.4375 18.4375 -3.84375 C 19.457031 -4.25 20.3125 -4.65625 21 -5.0625 C 21.445312 -5.3125 21.78125 -5.472656 22 -5.546875 C 22.226562 -5.628906 22.46875 -5.507812 22.71875 -5.1875 C 22.914062 -4.945312 23.097656 -4.710938 23.265625 -4.484375 C 23.429688 -4.265625 23.59375 -4.03125 23.75 -3.78125 C 23.957031 -3.5 24.082031 -3.242188 24.125 -3.015625 C 24.164062 -2.796875 23.960938 -2.523438 23.515625 -2.203125 C 22.773438 -1.628906 21.617188 -1.015625 20.046875 -0.359375 C 18.484375 0.285156 16.644531 0.609375 14.53125 0.609375 C 12.09375 0.609375 9.976562 0.03125 8.1875 -1.125 C 6.394531 -2.289062 5.007812 -3.847656 4.03125 -5.796875 C 3.050781 -7.753906 2.5625 -9.894531 2.5625 -12.21875 Z M 6.84375 -14.59375 L 21.375 -14.59375 C 21.332031 -15.769531 20.992188 -16.867188 20.359375 -17.890625 C 19.734375 -18.910156 18.921875 -19.734375 17.921875 -20.359375 C 16.921875 -20.992188 15.789062 -21.3125 14.53125 -21.3125 C 12.5 -21.3125 10.757812 -20.671875 9.3125 -19.390625 C 7.863281 -18.109375 7.039062 -16.507812 6.84375 -14.59375 Z M 6.84375 -14.59375 "/></g></g></g></svg>