<svg xmlns="http://www.w3.org/2000/svg" xmlns:xlink="http://www.w3.org/1999/xlink" width="500" zoomAndPan="magnify" viewBox="0 0 375 374.999991" height="500" preserveAspectRatio="xMidYMid meet" version="1.0"><defs><clipPath id="0abbb55652"><path d="M 71.1875 129 L 209.9375 129 L 209.9375 239.011719 L 71.1875 239.011719 Z M 71.1875 129 " clip-rule="nonzero"/></clipPath><clipPath id="6412e7ba18"><path d="M 76 113.011719 L 183 113.011719 L 183 159 L 76 159 Z M 76 113.011719 " clip-rule="nonzero"/></clipPath><clipPath id="6b8caab6cf"><path d="M 190 139.351562 L 297 139.351562 L 297 233 L 190 233 Z M 190 139.351562 " clip-rule="nonzero"/></clipPath><clipPath id="6c5084f5ec"><path d="M 159.566406 197 L 305.066406 197 L 305.066406 289.351562 L 159.566406 289.351562 Z M 159.566406 197 " clip-rule="nonzero"/></clipPath></defs><path fill="#1d6559" d="M 184.585938 166.042969 C 176.308594 170.128906 166.109375 173.839844 154.183594 177.261719 L 154.183594 181.34375 C 154.183594 182.476562 154.167969 183.574219 154.136719 184.636719 L 156.136719 184.0625 C 165.707031 181.316406 175.453125 178.078125 184.554688 173.894531 C 184.566406 171.46875 184.582031 168.851562 184.585938 166.042969 Z M 184.585938 166.042969 " fill-opacity="1" fill-rule="evenodd"/><g clip-path="url(#0abbb55652)"><path fill="#39827a" d="M 184.585938 166.042969 C 204.03125 156.445312 212.875 144.78125 208.625 129.933594 C 208.570312 136.21875 200.066406 142.503906 183.902344 148.777344 C 175.859375 151.902344 165.917969 155.019531 154.175781 158.136719 C 154.179688 158.1875 154.179688 158.242188 154.183594 158.296875 C 147.675781 160.195312 141.632812 161.78125 136.09375 163.136719 C 130.515625 164.457031 123.851562 165.890625 116.066406 167.515625 C 108.238281 169.105469 103.359375 170.113281 101.421875 170.578125 C 92.007812 172.589844 84.648438 176.621094 79.261719 182.585938 C 73.878906 188.589844 71.207031 195.796875 71.207031 204.277344 C 71.207031 210.554688 72.832031 216.367188 76.085938 221.75 C 79.339844 227.132812 83.988281 231.355469 89.996094 234.496094 C 96 237.632812 102.972656 239.222656 110.953125 239.222656 C 119.628906 239.222656 127.492188 237.75 134.503906 234.84375 C 141.476562 231.9375 148.722656 227.5625 156.238281 221.75 C 159.722656 227.445312 162.976562 231.746094 166.117188 234.726562 C 169.214844 237.710938 172.351562 239.222656 175.527344 239.222656 C 179.285156 239.222656 182.695312 237.902344 185.679688 235.308594 C 188.664062 232.714844 190.132812 229.808594 190.132812 226.632812 C 190.132812 224.8125 189.203125 220.742188 187.265625 214.429688 C 185.328125 208.113281 184.363281 202.03125 184.363281 196.222656 C 184.4375 190.023438 184.476562 184.367188 184.515625 179.292969 C 184.53125 177.621094 184.542969 175.820312 184.554688 173.894531 C 175.453125 178.078125 165.707031 181.316406 156.136719 184.0625 L 154.136719 184.636719 C 153.875 193.699219 152.496094 200.316406 150 204.511719 C 147.558594 208.734375 143.761719 212.21875 138.574219 214.894531 C 133.382812 217.566406 127.726562 218.921875 121.605469 218.921875 C 115.871094 218.921875 111.222656 217.296875 107.660156 214.003906 C 104.09375 210.710938 102.3125 206.71875 102.3125 201.992188 C 102.3125 197.460938 103.824219 193.9375 106.847656 191.417969 C 109.867188 188.863281 113.042969 187.15625 116.375 186.304688 C 119.707031 185.414062 125.710938 184.058594 134.390625 182.199219 C 143.027344 180.339844 149.652344 178.59375 154.183594 176.929688 L 154.183594 177.265625 C 166.113281 173.839844 176.308594 170.128906 184.589844 166.042969 Z M 184.585938 166.042969 " fill-opacity="1" fill-rule="evenodd"/></g><g clip-path="url(#6412e7ba18)"><path fill="#8cc342" d="M 153.414062 151.015625 C 162.800781 148.507812 172.292969 145.695312 181.34375 142.183594 L 182.644531 141.679688 C 181.894531 138.515625 180.929688 135.660156 179.75 133.117188 C 176.535156 126.144531 171.035156 121.066406 163.25 117.851562 C 155.460938 114.636719 144.769531 113.011719 131.132812 113.011719 C 118.933594 113.011719 108.78125 114.675781 100.609375 118.007812 C 92.433594 121.339844 86.429688 125.5625 82.554688 130.714844 C 78.683594 135.867188 76.785156 141.175781 76.785156 146.597656 C 76.785156 150.082031 78.023438 152.949219 80.578125 155.160156 C 83.097656 157.40625 86.121094 158.527344 89.605469 158.527344 C 93.441406 158.527344 95.960938 157.832031 97.160156 156.4375 C 98.320312 155.042969 100.335938 152.136719 103.164062 147.757812 C 105.992188 143.34375 109.402344 140.089844 113.390625 137.882812 C 117.34375 135.671875 123.269531 134.589844 131.132812 134.589844 C 140.316406 134.589844 146.320312 136.484375 149.261719 140.320312 C 151.226562 142.882812 152.605469 146.453125 153.414062 151.019531 Z M 153.414062 151.015625 " fill-opacity="1" fill-rule="evenodd"/></g><g clip-path="url(#6b8caab6cf)"><path fill="#39827a" d="M 211.074219 191.101562 C 211.074219 182.359375 212.808594 174.179688 216.28125 166.5625 C 219.75 158.945312 224.617188 153.085938 230.882812 148.972656 C 237.148438 144.863281 244.027344 142.808594 251.523438 142.808594 C 260.058594 142.808594 267.984375 145.453125 275.296875 150.738281 C 282.539062 156.058594 288.195312 162.890625 292.25 171.234375 C 293.351562 173.484375 294.398438 174.609375 295.382812 174.609375 C 296.117188 174.609375 296.5625 174.445312 296.71875 174.101562 C 296.871094 173.761719 296.949219 172.808594 296.949219 171.234375 L 294.921875 143.832031 C 294.796875 141.945312 294.121094 141.003906 292.894531 141.003906 C 291.726562 141.003906 290.835938 141.632812 290.222656 142.890625 C 289.730469 143.777344 287.789062 145.503906 284.410156 148.070312 C 278.507812 145.136719 272.726562 142.957031 267.070312 141.515625 C 261.414062 140.074219 255.882812 139.355469 250.472656 139.355469 C 240.328125 139.355469 230.488281 141.65625 220.960938 146.265625 C 211.429688 150.871094 204.035156 157.335938 198.78125 165.660156 C 193.523438 173.984375 190.894531 183.328125 190.894531 193.691406 C 190.894531 204.269531 193.597656 213.480469 199.003906 221.332031 C 202.054688 225.761719 205.738281 229.632812 210.011719 232.980469 C 214.507812 230.125 219.539062 227.96875 224.8125 226.644531 C 215.664062 217.449219 211.074219 205.605469 211.074219 191.101562 " fill-opacity="1" fill-rule="nonzero"/></g><g clip-path="url(#6c5084f5ec)"><path fill="#8cc342" d="M 304.925781 201.199219 L 304.679688 197.003906 L 303.683594 201.164062 C 303.605469 201.488281 303.539062 201.816406 303.449219 202.144531 C 303.363281 202.472656 303.269531 202.800781 303.167969 203.128906 C 302.960938 203.777344 302.726562 204.425781 302.472656 205.0625 C 301.957031 206.347656 301.355469 207.601562 300.664062 208.816406 C 299.28125 211.253906 297.554688 213.535156 295.53125 215.574219 C 293.5 217.621094 291.167969 219.410156 288.605469 220.898438 C 286.050781 222.382812 283.285156 223.5625 280.410156 224.449219 C 277.539062 225.332031 274.5625 225.933594 271.558594 226.296875 C 268.554688 226.660156 265.519531 226.789062 262.492188 226.75 C 259.46875 226.710938 256.449219 226.488281 253.453125 226.140625 C 252.703125 226.050781 251.957031 225.953125 251.207031 225.851562 C 250.464844 225.742188 249.707031 225.644531 248.953125 225.542969 C 248.574219 225.496094 248.195312 225.433594 247.816406 225.398438 L 246.679688 225.277344 C 245.917969 225.191406 245.15625 225.140625 244.394531 225.078125 C 241.339844 224.867188 238.257812 224.816406 235.183594 225.027344 C 234.417969 225.089844 233.648438 225.132812 232.882812 225.226562 L 231.734375 225.347656 L 230.589844 225.503906 C 229.824219 225.601562 229.066406 225.746094 228.308594 225.875 C 227.929688 225.9375 227.550781 226.023438 227.175781 226.097656 C 226.796875 226.175781 226.417969 226.246094 226.046875 226.339844 C 225.632812 226.433594 225.222656 226.542969 224.8125 226.644531 C 219.539062 227.96875 214.507812 230.125 210.011719 232.980469 C 209.765625 233.136719 209.511719 233.285156 209.269531 233.445312 C 208.015625 234.277344 206.800781 235.15625 205.628906 236.082031 C 204.460938 237.011719 203.34375 237.988281 202.265625 239 C 200.113281 241.023438 198.160156 243.214844 196.394531 245.511719 C 194.632812 247.8125 193.050781 250.21875 191.671875 252.710938 C 190.980469 253.957031 190.335938 255.222656 189.746094 256.507812 C 189.164062 257.792969 188.617188 259.09375 188.175781 260.417969 C 188.640625 259.101562 189.214844 257.8125 189.824219 256.535156 C 190.4375 255.261719 191.105469 254.007812 191.820312 252.777344 C 193.246094 250.3125 194.855469 247.933594 196.648438 245.667969 C 198.441406 243.40625 200.421875 241.257812 202.582031 239.273438 C 203.660156 238.28125 204.785156 237.328125 205.953125 236.417969 C 207.121094 235.515625 208.335938 234.660156 209.585938 233.847656 C 209.871094 233.667969 210.164062 233.5 210.449219 233.324219 C 215.003906 230.527344 220.070312 228.4375 225.363281 227.203125 C 225.644531 227.136719 225.921875 227.0625 226.203125 227 C 226.574219 226.910156 226.949219 226.847656 227.320312 226.773438 C 227.691406 226.703125 228.0625 226.621094 228.4375 226.558594 C 229.1875 226.441406 229.933594 226.304688 230.6875 226.21875 L 231.816406 226.074219 L 232.949219 225.960938 C 233.699219 225.875 234.457031 225.84375 235.214844 225.789062 C 235.59375 225.757812 235.972656 225.757812 236.351562 225.738281 L 237.488281 225.699219 L 238.621094 225.691406 C 239.003906 225.691406 239.378906 225.679688 239.757812 225.695312 C 241.273438 225.71875 242.78125 225.78125 244.289062 225.90625 C 245.039062 225.96875 245.792969 226.023438 246.539062 226.117188 L 247.664062 226.242188 C 248.039062 226.28125 248.410156 226.339844 248.78125 226.390625 C 249.527344 226.496094 250.273438 226.597656 251.027344 226.714844 C 251.78125 226.824219 252.535156 226.925781 253.292969 227.019531 C 256.316406 227.390625 259.371094 227.636719 262.441406 227.695312 C 265.511719 227.757812 268.597656 227.640625 271.667969 227.28125 C 274.738281 226.921875 277.789062 226.320312 280.75 225.421875 C 283.710938 224.523438 286.574219 223.3125 289.226562 221.789062 C 291.878906 220.257812 294.3125 218.410156 296.425781 216.296875 C 298.542969 214.1875 300.332031 211.816406 301.765625 209.300781 C 302.480469 208.042969 303.109375 206.742188 303.640625 205.417969 C 303.679688 205.328125 303.714844 205.238281 303.75 205.148438 C 303.710938 207.402344 303.523438 209.664062 303.175781 211.90625 C 303.042969 212.789062 302.878906 213.664062 302.699219 214.542969 L 302.554688 215.199219 L 302.398438 215.851562 C 302.289062 216.285156 302.199219 216.722656 302.078125 217.15625 C 301.621094 218.890625 301.054688 220.605469 300.425781 222.296875 C 299.773438 223.984375 299.027344 225.644531 298.191406 227.265625 C 297.332031 228.878906 296.398438 230.457031 295.347656 231.984375 C 295.085938 232.363281 294.804688 232.734375 294.535156 233.109375 C 294.394531 233.292969 294.265625 233.480469 294.121094 233.667969 L 293.6875 234.214844 L 293.25 234.757812 C 293.105469 234.9375 292.960938 235.121094 292.804688 235.292969 L 291.878906 236.351562 C 291.730469 236.53125 291.5625 236.695312 291.402344 236.867188 L 290.910156 237.371094 L 290.425781 237.882812 C 290.257812 238.046875 290.082031 238.207031 289.914062 238.371094 C 289.566406 238.695312 289.230469 239.023438 288.878906 239.339844 L 287.804688 240.269531 C 287.453125 240.585938 287.066406 240.871094 286.695312 241.171875 L 285.851562 241.839844 L 285.558594 242.054688 L 284.398438 242.902344 L 284.105469 243.113281 L 283.804688 243.316406 L 283.210938 243.71875 C 282.417969 244.269531 281.585938 244.765625 280.769531 245.28125 C 280.359375 245.53125 279.929688 245.765625 279.511719 246.007812 L 278.878906 246.371094 C 278.667969 246.492188 278.453125 246.601562 278.238281 246.714844 L 276.945312 247.394531 L 275.632812 248.035156 C 275.414062 248.140625 275.195312 248.253906 274.972656 248.355469 L 274.304688 248.652344 C 273.859375 248.847656 273.414062 249.058594 272.964844 249.246094 C 272.054688 249.613281 271.15625 250 270.230469 250.332031 L 269.539062 250.589844 C 269.308594 250.675781 269.078125 250.761719 268.847656 250.832031 L 267.449219 251.308594 C 265.574219 251.90625 263.683594 252.464844 261.761719 252.917969 L 261.039062 253.09375 C 260.800781 253.148438 260.558594 253.199219 260.316406 253.25 L 258.867188 253.566406 L 257.410156 253.84375 L 256.683594 253.980469 L 255.949219 254.097656 C 255.460938 254.175781 254.976562 254.265625 254.484375 254.335938 L 253.011719 254.546875 C 252.03125 254.671875 251.050781 254.804688 250.0625 254.90625 C 248.089844 255.128906 246.113281 255.304688 244.132812 255.460938 C 240.167969 255.78125 236.191406 256.011719 232.214844 256.328125 C 230.222656 256.488281 228.234375 256.667969 226.246094 256.890625 C 224.261719 257.117188 222.277344 257.378906 220.300781 257.671875 C 212.394531 258.851562 204.5625 260.613281 196.988281 263.09375 C 193.207031 264.347656 189.488281 265.769531 185.894531 267.4375 C 185 267.863281 184.101562 268.277344 183.222656 268.730469 C 182.785156 268.953125 182.339844 269.171875 181.90625 269.402344 L 180.605469 270.105469 C 180.167969 270.335938 179.742188 270.582031 179.320312 270.828125 L 178.046875 271.570312 L 176.796875 272.347656 L 176.167969 272.734375 L 175.558594 273.140625 L 174.339844 273.957031 C 173.941406 274.238281 173.550781 274.523438 173.152344 274.808594 L 172.558594 275.238281 C 172.359375 275.375 172.175781 275.53125 171.980469 275.675781 L 170.828125 276.570312 C 170.445312 276.867188 170.085938 277.1875 169.710938 277.496094 C 169.34375 277.804688 168.964844 278.109375 168.613281 278.4375 L 167.542969 279.40625 L 167.277344 279.652344 L 167.019531 279.902344 L 166.511719 280.40625 C 166.171875 280.746094 165.820312 281.078125 165.492188 281.421875 C 165.160156 281.769531 164.835938 282.113281 164.515625 282.464844 C 163.875 283.167969 163.253906 283.890625 162.664062 284.628906 C 161.492188 286.109375 160.445312 287.675781 159.664062 289.34375 C 160.480469 287.6875 161.554688 286.140625 162.753906 284.6875 C 163.351562 283.957031 163.988281 283.25 164.640625 282.558594 C 164.96875 282.214844 165.300781 281.871094 165.636719 281.535156 C 165.972656 281.195312 166.324219 280.871094 166.667969 280.539062 L 167.183594 280.042969 L 167.441406 279.792969 L 167.714844 279.554688 L 168.792969 278.605469 C 169.144531 278.28125 169.53125 277.988281 169.902344 277.679688 C 170.277344 277.378906 170.644531 277.066406 171.027344 276.773438 L 172.1875 275.902344 C 172.382812 275.757812 172.570312 275.609375 172.769531 275.472656 L 173.367188 275.054688 C 173.765625 274.777344 174.160156 274.496094 174.5625 274.222656 L 176.398438 273.03125 L 177.023438 272.65625 L 178.277344 271.898438 L 179.554688 271.175781 C 179.980469 270.9375 180.402344 270.695312 180.839844 270.472656 L 182.140625 269.785156 C 182.578125 269.558594 183.023438 269.351562 183.460938 269.132812 C 184.335938 268.691406 185.238281 268.289062 186.128906 267.878906 C 186.574219 267.667969 187.03125 267.484375 187.484375 267.289062 C 187.9375 267.097656 188.386719 266.894531 188.84375 266.710938 C 189.761719 266.347656 190.671875 265.964844 191.601562 265.628906 L 192.988281 265.109375 L 195.085938 264.371094 L 195.792969 264.140625 L 197.203125 263.675781 C 204.753906 261.273438 212.554688 259.609375 220.417969 258.480469 C 222.386719 258.207031 224.359375 257.960938 226.332031 257.746094 C 228.304688 257.539062 230.285156 257.371094 232.269531 257.222656 C 236.234375 256.929688 240.207031 256.726562 244.191406 256.433594 C 246.179688 256.285156 248.167969 256.113281 250.164062 255.898438 C 251.15625 255.800781 252.148438 255.667969 253.144531 255.542969 L 254.632812 255.335938 C 255.132812 255.269531 255.621094 255.179688 256.121094 255.105469 L 256.863281 254.984375 L 257.601562 254.847656 L 259.082031 254.574219 L 260.554688 254.261719 C 260.800781 254.207031 261.046875 254.160156 261.292969 254.101562 L 262.023438 253.925781 C 263.980469 253.476562 265.910156 252.914062 267.820312 252.3125 L 269.246094 251.835938 C 269.484375 251.761719 269.71875 251.675781 269.953125 251.585938 L 270.660156 251.328125 C 271.605469 250.992188 272.523438 250.605469 273.453125 250.230469 C 273.910156 250.039062 274.363281 249.832031 274.820312 249.632812 L 275.507812 249.328125 C 275.730469 249.226562 275.957031 249.113281 276.179688 249.003906 L 277.523438 248.355469 L 278.84375 247.660156 C 279.0625 247.546875 279.285156 247.433594 279.5 247.3125 L 280.144531 246.941406 C 280.574219 246.695312 281.011719 246.457031 281.433594 246.199219 C 282.269531 245.675781 283.121094 245.167969 283.929688 244.605469 L 284.542969 244.195312 L 284.847656 243.988281 L 285.148438 243.773438 L 286.339844 242.90625 L 286.636719 242.6875 L 286.921875 242.460938 L 287.5 242.007812 C 287.882812 241.699219 288.277344 241.40625 288.640625 241.082031 L 289.75 240.125 C 290.113281 239.800781 290.460938 239.460938 290.816406 239.125 C 290.992188 238.960938 291.171875 238.796875 291.34375 238.625 L 291.847656 238.105469 L 292.351562 237.582031 C 292.519531 237.40625 292.6875 237.234375 292.84375 237.050781 L 293.796875 235.96875 C 293.960938 235.789062 294.105469 235.597656 294.257812 235.414062 L 294.707031 234.855469 L 295.15625 234.292969 C 295.300781 234.105469 295.4375 233.910156 295.582031 233.71875 C 295.859375 233.332031 296.148438 232.953125 296.417969 232.5625 C 297.496094 231 298.460938 229.378906 299.34375 227.730469 C 300.203125 226.066406 300.96875 224.367188 301.640625 222.640625 C 302.941406 219.179688 303.890625 215.628906 304.433594 212.027344 C 304.984375 208.429688 305.140625 204.800781 304.925781 201.199219 " fill-opacity="1" fill-rule="nonzero"/></g><path fill="#8cc342" d="M 198.332031 254.640625 C 198.804688 254.347656 199.28125 254.054688 199.757812 253.769531 C 200.238281 253.484375 200.714844 253.199219 201.203125 252.921875 C 201.6875 252.648438 202.167969 252.363281 202.65625 252.097656 L 203.390625 251.695312 L 204.128906 251.300781 C 204.621094 251.035156 205.113281 250.777344 205.613281 250.523438 C 206.105469 250.257812 206.605469 250.011719 207.109375 249.765625 C 211.117188 247.789062 215.265625 246.066406 219.546875 244.703125 C 220.613281 244.351562 221.695312 244.054688 222.777344 243.742188 C 223.863281 243.464844 224.949219 243.167969 226.050781 242.941406 C 226.601562 242.8125 227.152344 242.699219 227.707031 242.59375 C 228.257812 242.488281 228.8125 242.390625 229.363281 242.285156 L 231.03125 242.03125 C 231.308594 241.992188 231.585938 241.9375 231.867188 241.90625 L 232.703125 241.8125 C 237.183594 241.265625 241.710938 241.296875 246.210938 241.769531 C 241.824219 240.820312 237.203125 240.527344 232.628906 240.914062 C 231.480469 240.976562 230.34375 241.140625 229.203125 241.277344 C 228.070312 241.460938 226.929688 241.628906 225.804688 241.875 C 225.804688 241.875 225.800781 241.878906 225.796875 241.878906 C 224.667969 242.089844 223.5625 242.382812 222.449219 242.648438 C 221.347656 242.960938 220.238281 243.257812 219.152344 243.617188 C 214.785156 245 210.597656 246.84375 206.628906 248.988281 C 206.136719 249.261719 205.640625 249.527344 205.152344 249.8125 L 204.417969 250.230469 C 204.175781 250.367188 203.9375 250.519531 203.695312 250.664062 L 202.976562 251.101562 L 202.265625 251.546875 C 201.789062 251.847656 201.320312 252.152344 200.855469 252.460938 C 199.929688 253.085938 199.011719 253.71875 198.125 254.386719 C 197.234375 255.050781 196.359375 255.734375 195.53125 256.460938 C 195.992188 256.144531 196.453125 255.835938 196.921875 255.535156 C 197.15625 255.382812 197.386719 255.230469 197.625 255.082031 C 197.859375 254.933594 198.09375 254.785156 198.332031 254.640625 " fill-opacity="1" fill-rule="nonzero"/></svg>